<?xml version="1.0" encoding="utf-8"?>
<!-- Generator: Adobe Illustrator 24.0.0, SVG Export Plug-In . SVG Version: 6.00 Build 0)  -->
<svg version="1.1" id="Layer_1" xmlns="http://www.w3.org/2000/svg" xmlns:xlink="http://www.w3.org/1999/xlink" x="0px" y="0px"
	 viewBox="0 0 1200 628" style="enable-background:new 0 0 1200 628;" xml:space="preserve">
<style type="text/css">
	.st0{fill:#43BDA4;}
	.st1{fill:none;stroke:#FFFFFF;stroke-width:2;stroke-miterlimit:10;}
	.st2{fill:#0F7B6A;}
	.st3{fill:#343944;stroke:#FFFFFF;stroke-width:2;stroke-miterlimit:10;}
	.st4{fill:#E65847;}
	.st5{fill:#E65847;stroke:#FFFFFF;stroke-width:2;stroke-miterlimit:10;}
	.st6{fill:#FDC536;stroke:#FFFFFF;stroke-width:2;stroke-miterlimit:10;}
	.st7{fill:#343944;stroke:#FFFFFF;stroke-width:2;stroke-linecap:round;stroke-linejoin:round;stroke-miterlimit:10;}
	.st8{fill:#FFFFFF;}
	.st9{fill:#E65847;stroke:#FFFFFF;stroke-width:2;stroke-linecap:round;stroke-linejoin:round;stroke-miterlimit:10;}
	.st10{fill:none;stroke:#FFFFFF;stroke-width:2;stroke-linecap:round;stroke-linejoin:round;stroke-miterlimit:10;}
	.st11{fill:none;stroke:#FFFFFF;stroke-width:2;stroke-linejoin:round;stroke-miterlimit:10;}
	.st12{fill:#434343;stroke:#FFFFFF;stroke-width:2;stroke-miterlimit:10;}
</style>
<rect class="st0" width="1200" height="628"/>
<line class="st1" x1="210.4" y1="163.6" x2="1019.2" y2="163.6"/>
<line class="st1" x1="279.7" y1="331.8" x2="897.9" y2="331.8"/>
<line class="st1" x1="346.5" y1="508.7" x2="818.2" y2="508.7"/>
<rect x="79.2" y="39.8" class="st2" width="905.7" height="121.2"/>
<rect x="157.1" y="217.5" class="st2" width="740.8" height="121.2"/>
<rect x="277.3" y="391.3" class="st2" width="516.1" height="121.2"/>
<rect x="123" y="104.2" class="st3" width="180.2" height="118.9"/>
<rect x="317.8" y="104.2" class="st3" width="180.2" height="118.9"/>
<rect x="512.6" y="104.2" class="st3" width="180.2" height="118.9"/>
<rect x="707.4" y="104.2" class="st3" width="180.2" height="118.9"/>
<rect x="902.2" y="104.2" class="st3" width="180.2" height="118.9"/>
<rect x="220.6" y="272.4" class="st4" width="180.2" height="118.9"/>
<rect x="415.4" y="272.4" class="st4" width="180.2" height="118.9"/>
<rect x="610.2" y="272.4" class="st4" width="180.2" height="118.9"/>
<rect x="805" y="272.4" class="st4" width="180.2" height="118.9"/>
<rect x="220.6" y="272.4" class="st5" width="180.2" height="118.9"/>
<rect x="415.4" y="272.4" class="st5" width="180.2" height="118.9"/>
<rect x="610.2" y="272.4" class="st5" width="180.2" height="118.9"/>
<rect x="805" y="272.4" class="st5" width="180.2" height="118.9"/>
<rect x="318" y="449.2" class="st6" width="180.2" height="118.9"/>
<rect x="512.8" y="449.2" class="st6" width="180.2" height="118.9"/>
<rect x="707.6" y="449.2" class="st6" width="180.2" height="118.9"/>
<g>
	<path class="st1" d="M231.9,147.3c1.7,7.3,1.6,17.1,0,23c-3.9-0.9-31.9-4-20.1-46c8.9-0.2,23.1,4.8,23.1,4.8s15.5-4.8,18.9,11.6
		c11,18.9,14.9,50.4-0.3,57.1l-4-4.3c7.8-7.9,4.7-26.3-0.3-29.9c0,0-8.9,2.4-13.6-1.7"/>
	<path class="st1" d="M247.2,159.4c0,0,14.9-0.4,18.2-13.7"/>
	<path class="st1" d="M210.7,128.9c-43-0.5-56.9,29.2-40.3,57.3l3.5,16.8H190l-3.2-16.3c0,0,7.2-5.9,8.1-16.8"/>
	<path class="st1" d="M194,185.5c4.2,0,10.3-0.8,18.7-3.7"/>
	<path class="st1" d="M210.4,171.5c0,0-2.6,11,12.5,18.7l4.9,12.8h15.4c0,0-4.4-18.2-13.1-27c7.4-4.9,6.7-13.3,6.7-13.3"/>
	<path class="st1" d="M206.1,183.9c0,0-6.6,11.1-6.6,19.2h14.7c0,0,1.5-10,5.6-14.5"/>
	<path class="st1" d="M169.9,185.5c-3.4,4.3-6.1,12.1-6,17.5h9.9"/>
	<path class="st1" d="M163.9,159.4c0,0-3.5-0.1-3,12c0,0.2,0,6.7,0,6.7"/>
	<line class="st1" x1="244.5" y1="143.7" x2="246.5" y2="143.7"/>
	<line class="st1" x1="263.4" y1="174.4" x2="258.4" y2="174.4"/>
	<line class="st1" x1="263.4" y1="181.8" x2="259.9" y2="181.8"/>
	<path class="st1" d="M229.7,203c0,0-0.3-3.8,3.4-3.8"/>
	<path class="st1" d="M201.7,203c0,0-0.3-3.8,3.4-3.8"/>
	<path class="st1" d="M176.1,203c0,0-0.3-3.8,3.4-3.8"/>
</g>
<g>
	<line class="st7" x1="381.3" y1="203.9" x2="442.2" y2="203.9"/>
	<g>
		<path class="st7" d="M417.7,183.7c0,0,1.2,9.5,7.1,12v8h3l3-13.8l-1.1-7.5"/>
		<path class="st7" d="M396.5,178.5c0,0-0.1,17.8-0.9,25.3h3.4l2.5-27.7"/>
		<path class="st7" d="M396.5,133.7c-12.4,35.4,3.4,46.6,2.5,70h3.3l1.1-21.7c0,0,9.7,6.3,21.8,5.8c0,0-1.3,5.3,4.4,6.6l2.5,9.3h2.3
			l-1.3-20.2c3.1-23.1-13.5-12.2-23.9-18.1c-6.8-3.9-12-13-7.8-31.7H396.5z"/>
		<path class="st7" d="M401.2,135.1c2.1-7-4.5-6.6-9.2-5.2c-14.2,4-1.1,8.3,3.5,8.3"/>
		<path class="st7" d="M433.2,174.5c0,0,4.7,0.2,4.7,6v7.1"/>
		<circle class="st7" cx="400.1" cy="170.2" r="2.6"/>
		<path class="st7" d="M416.6,174.4c0,1.6-1.3,2.9-2.9,2.9c-1.6,0-2.9-1.3-2.9-2.9c0-1.6,1.3-2.9,2.9-2.9
			C415.4,171.5,416.6,172.8,416.6,174.4z"/>
		<path class="st7" d="M417.7,183.2c0-1.2,1-2.1,2.1-2.1c1.2,0,2.1,1,2.1,2.1"/>
		<path class="st7" d="M429.1,174.4c0,1.6-1.3,2.9-2.9,2.9c-1.6,0-2.9-1.3-2.9-2.9c0-1.6,1.3-2.9,2.9-2.9
			C427.8,171.5,429.1,172.8,429.1,174.4z"/>
		<path class="st7" d="M397.5,132.8c0,0,2.5-2.7,8.5-0.7c0,0-2.4,4.2-8.5,3.7"/>
		<line class="st7" x1="397.5" y1="129.1" x2="399.2" y2="123.4"/>
		<line class="st7" x1="390.7" y1="124.7" x2="392" y2="129.8"/>
	</g>
</g>
<g>
	<g>
		<path class="st7" d="M632.4,142.5c3.8-3.8,4.1-9.7,0.6-13.2c-3.5-3.5-9.4-3.2-13.2,0.6c-1.3,1.3-2.2,2.9-2.7,4.6l-9.8,9.8
			l10.7,10.7l9.8-9.8C629.4,144.7,631,143.8,632.4,142.5z"/>
		<g>
			<g>
				<g>
					<path class="st7" d="M600.5,135.7c0,0-6.1-6.5-2.3-12.8c0,0-15.9,9.8-6.1,21.1L600.5,135.7z"/>
					<path class="st7" d="M626.5,161.7c0,0,6.5,6.1,12.8,2.3c0,0-9.8,15.9-21.1,6.1L626.5,161.7z"/>
				</g>
				<g>
					<path class="st7" d="M596.5,191.6c0,0,6.1,6.5,2.3,12.8c0,0,15.9-9.8,6.1-21.1L596.5,191.6z"/>
					<path class="st7" d="M570.6,165.6c0,0-6.5-6.1-12.8-2.3c0,0,9.8-15.9,21.1-6.1L570.6,165.6z"/>
				</g>
			</g>
			<g>
				
					<ellipse transform="matrix(0.7071 -0.7071 0.7071 0.7071 59.5869 471.1534)" class="st7" cx="598.5" cy="163.6" rx="31.1" ry="25.5"/>
				<path class="st7" d="M616,146.2c2.3,2.3,3.8,5,4.5,8.1"/>
				<polygon class="st7" points="585,167.3 588.6,153.8 602.1,150.1 612,160 608.4,173.5 594.9,177.2 				"/>
				<g>
					<g>
						<g>
							<line class="st7" x1="602.1" y1="150.1" x2="604.8" y2="135.2"/>
							<line class="st7" x1="585" y1="167.3" x2="570.1" y2="169.9"/>
						</g>
						<line class="st7" x1="588.6" y1="153.8" x2="580.5" y2="145.6"/>
					</g>
					<g>
						<g>
							<line class="st7" x1="612" y1="160" x2="627" y2="157.4"/>
							<line class="st7" x1="594.9" y1="177.2" x2="592.3" y2="192.1"/>
						</g>
						<line class="st7" x1="608.4" y1="173.5" x2="616.6" y2="181.7"/>
					</g>
				</g>
			</g>
		</g>
	</g>
	<g>
		<line class="st7" x1="625.4" y1="130.4" x2="625.4" y2="130.4"/>
		<line class="st7" x1="631.8" y1="136.7" x2="631.8" y2="136.7"/>
	</g>
</g>
<g>
	<path class="st7" d="M803.7,135.6c-0.3,6.4-4.4,9.4-9.8,11.4c-9.7,3.6-20.8,6.5-25.7,13.4c-4.9,6.9-2.4,18.9,6.7,25.7l2.2,15.9h8.1
		c0,0,1-1.8-3.1-4.8v-12.5c0,0,10.3,0.9,13.5-7c19.3,8.9,37.3-7.4,25.8-30.2"/>
	<g>
		<path class="st7" d="M802.3,169.2V202h8.4c0,0-0.2-1.8-2.9-4.1v-28.7"/>
		<path class="st7" d="M814.2,169.2V202h8.4c0,0-0.2-1.8-2.9-4.1v-28.7"/>
	</g>
	<g>
		<g>
			<path class="st7" d="M806.6,139c-0.7,3.1-3.4,5.1-6,4.5s-4.2-3.6-3.4-6.7c0.7-3.1,3.4-5.1,6-4.5
				C805.8,132.9,807.4,135.9,806.6,139z"/>
		</g>
		<g>
			<path class="st7" d="M825.6,139c0.7,3.1,3.4,5.1,6,4.5c2.6-0.6,4.2-3.6,3.4-6.7c-0.7-3.1-3.4-5.1-6-4.5
				C826.4,132.9,824.9,135.9,825.6,139z"/>
		</g>
	</g>
	<path class="st7" d="M831.3,145.7l-3-11.5c-2.3-11.3-12.2-8.5-12.2-8.5s-9.8-2.8-12.2,8.5l-3,11.5c0,0,0.7,13.8,15.1,13.9v0
		c0,0,0.1,0,0.1,0c0,0,0.1,0,0.1,0v0C830.6,159.4,831.3,145.7,831.3,145.7z"/>
	<path class="st7" d="M826.4,142.6c0-3.1-2.5-5.6-5.6-5.6c-1.9,0-3.6,1-4.7,2.5c-1-1.5-2.7-2.5-4.7-2.5c-3.1,0-5.6,2.5-5.6,5.6
		c0,2.7,1.9,4.9,4.4,5.5v2.3c0,2.2,1.8,3.9,3.9,3.9h4c2.2,0,3.9-1.8,3.9-3.9v-2.3C824.5,147.5,826.4,145.3,826.4,142.6z"/>
	<path class="st7" d="M770.6,160c2.8-6.4,5.1-15.6,0.9-21.9c-3.6-5.4-11-6.4-16.7-4.1c-5.3,2.1-8.3,7.3-9,12.8
		c-0.4,3.4-0.2,7.1,1.2,10.3c1.8,4,6.1,5.7,9.4,8.3c1.1,0.9,2.2,2,2.5,3.4c0.3,1.4-0.3,3.1-1.6,3.5"/>
	<line class="st7" x1="815.2" y1="148.7" x2="817.5" y2="148.7"/>
</g>
<g>
	<path class="st7" d="M994.5,174.7c0,0,2.4,11.8,15.5,12.6l-1.3,5.6h6.6l6-18.2"/>
	<path class="st7" d="M989.5,174.7v14.1c0,2.3-1.8,4.1-4.1,4.1l0,0c-1.8,0-3.4-1.2-3.9-2.9l-4.9-15.4"/>
	<g>
		<path class="st7" d="M963.8,163.2c-4.2,7-12.6,2.9-12.6,2.9c-9.1,1-9.1-7.9-9.1-7.9l5.7-3.4c0,0,6.4-15.9,24.3-14.4
			c0,0,16.4-1.6,22.5-6.4c0,0,42.2,12.2,36.1,43.2v11.6c0,2.5-2,4.6-4.6,4.6l0,0c-1.9,0-3.5-1.1-4.2-2.8l-3.1-7.6
			c0,0-12,4.1-18.2-7.3C1000.6,175.6,960.5,184.3,963.8,163.2z"/>
		<path class="st7" d="M942.8,161.1c0,0,3,1,2.9-2"/>
	</g>
	<path class="st7" d="M962,150.7c0-2.2,1.8-4.1,4.1-4.1s4.1,1.8,4.1,4.1s-1.8,4.1-4.1,4.1"/>
	<path class="st7" d="M970.1,170.2c0,0-3.7,7.7-6.3,15.7c-1.1,3.4,1.5,7,5.1,7l0,0c1.6,0,3-0.7,4.1-1.9c3.4-4,11-13.5,11.9-20.5"/>
	<path class="st7" d="M988.2,134c0,0-0.3,5.3-9.5,9.2"/>
	<path class="st7" d="M1029.4,161.2c0,0,10.7,2.9,1.8,9"/>
	<line class="st7" x1="985.4" y1="192.9" x2="979.8" y2="192.9"/>
	<line class="st7" x1="968.9" y1="192.9" x2="962" y2="192.9"/>
	<line class="st7" x1="1026" y1="193.3" x2="1019.2" y2="193.3"/>
	<path class="st7" d="M999.8,165.7c0,0-2.8,5.3,0.8,9.9"/>
	<line class="st7" x1="1014" y1="192.9" x2="1003.2" y2="192.9"/>
	<line class="st7" x1="953.3" y1="154.7" x2="954.8" y2="154.7"/>
</g>
<g>
	<path class="st8" d="M125.6,86.2l5.5-15h3l5.4,15h-2.9l-1.5-4.2H130l-1.5,4.2H125.6z M130.7,79.9h3.9c-1.2-3.9-1.9-6-1.9-6.1
		L130.7,79.9z"/>
	<path class="st8" d="M141.1,86.2v-15h3c0.5,0.8,1.6,2.5,3.3,5s2.6,4.1,3,4.6c0.1,0.2,0.3,0.4,0.5,0.8c0.2,0.4,0.4,0.6,0.5,0.8
		c0-2.3-0.1-3.6-0.1-3.7v-7.6h2.5v15h-3L144,75.7l-0.5-0.8c0.1,1.8,0.1,3.1,0.1,3.8v7.6H141.1z"/>
	<path class="st8" d="M157.1,86.2v-15h2.8v15H157.1z"/>
	<path class="st8" d="M163.2,86.2v-15h3.3l4.5,10.8l4.6-10.8h3.2v15h-2.6v-7.4l0.1-4.3l-0.4,1.1l-3.8,9.5h-2.4l-3.8-9.6l-0.4-1.1
		l0.1,4.3v7.4H163.2z"/>
	<path class="st8" d="M180.4,86.2l5.5-15h3l5.4,15h-2.9l-1.5-4.2h-5.3l-1.5,4.2H180.4z M185.5,79.9h3.9c-1.2-3.9-1.9-6-1.9-6.1
		L185.5,79.9z"/>
	<path class="st8" d="M195.9,86.2v-15h2.8V84h6.3l-0.1,2.2H195.9z"/>
	<path class="st8" d="M211.1,86.4c-1.8,0-3.4-0.4-4.9-1.3l0.7-2.2c0.6,0.4,1.3,0.6,2.1,0.9s1.5,0.3,2.2,0.3c0.9,0,1.5-0.2,2-0.6
		c0.5-0.4,0.7-0.9,0.7-1.6c0-0.9-0.6-1.6-1.9-2c-0.1,0-0.3-0.1-0.7-0.2s-0.8-0.2-1.2-0.3c-0.4-0.1-0.6-0.2-0.8-0.3c-2-0.7-3-2-3-4
		c0-1.4,0.5-2.4,1.5-3.1s2.3-1.1,3.9-1.1c1.8,0,3.4,0.4,4.7,1.1l-0.8,2c-1.3-0.6-2.6-0.9-3.7-0.9c-0.8,0-1.5,0.1-1.9,0.4
		c-0.4,0.3-0.6,0.8-0.7,1.5c0,0.8,0.4,1.4,1.2,1.6c0.2,0.1,0.6,0.2,1.2,0.4s1.1,0.3,1.3,0.4c1.4,0.5,2.4,1,2.9,1.7
		c0.6,0.7,0.9,1.6,0.9,2.8c0,1.4-0.5,2.5-1.5,3.3C214.2,86.1,212.9,86.4,211.1,86.4z"/>
</g>
<g>
	<g>
		<path class="st8" d="M221.4,263V248h5c1.2,0,2.2,0.2,3,0.5s1.5,0.8,2,1.5c0.5,0.7,0.7,1.5,0.7,2.6c0,0.7-0.1,1.4-0.3,1.9
			s-0.5,1.1-0.9,1.5s-1,0.8-1.8,1.1c-0.8,0.2-1.7,0.4-2.8,0.4c-0.9,0-1.7,0-2.3-0.1v5.8H221.4z M226.1,255.3c0.6,0,1.1-0.1,1.5-0.2
			c0.4-0.1,0.7-0.2,1-0.4c0.2-0.2,0.4-0.4,0.6-0.6c0.1-0.3,0.2-0.5,0.3-0.7c0-0.2,0.1-0.5,0.1-0.8c0-0.8-0.3-1.5-0.8-1.9
			s-1.3-0.6-2.3-0.6h-2.3v5.3C224.2,255.3,224.9,255.3,226.1,255.3z"/>
		<path class="st8" d="M234.3,263v-15h9.1l-0.1,2.2H237v3.9h5.9v2.2H237v4.5h6.4l-0.1,2.2H234.3z"/>
		<path class="st8" d="M249,263v-12.8h-4.4V248h11.5v2.2h-4.4V263H249z"/>
		<path class="st8" d="M262.1,263.2c-1.8,0-3.4-0.4-4.9-1.3l0.7-2.2c0.6,0.4,1.3,0.6,2.1,0.9s1.5,0.3,2.2,0.3c0.9,0,1.5-0.2,2-0.6
			c0.5-0.4,0.7-0.9,0.7-1.6c0-0.9-0.6-1.6-1.9-2c-0.1,0-0.3-0.1-0.7-0.2s-0.8-0.2-1.2-0.3c-0.4-0.1-0.6-0.2-0.8-0.3c-2-0.7-3-2-3-4
			c0-1.4,0.5-2.4,1.5-3.1s2.3-1.1,3.9-1.1c1.8,0,3.4,0.4,4.7,1.1l-0.8,2c-1.3-0.6-2.6-0.9-3.7-0.9c-0.8,0-1.5,0.1-1.9,0.4
			c-0.4,0.3-0.6,0.8-0.7,1.5c0,0.8,0.4,1.4,1.2,1.6c0.2,0.1,0.6,0.2,1.2,0.4s1.1,0.3,1.3,0.4c1.4,0.5,2.4,1,2.9,1.7
			c0.6,0.7,0.9,1.6,0.9,2.8c0,1.4-0.5,2.5-1.5,3.3C265.2,262.8,263.8,263.2,262.1,263.2z"/>
	</g>
</g>
<g>
	<g>
		<path class="st8" d="M319.5,437.6v-15.1h5c1.2,0,2.2,0.2,3,0.5c0.8,0.3,1.5,0.8,2,1.5c0.5,0.7,0.7,1.5,0.7,2.6
			c0,0.7-0.1,1.4-0.3,1.9c-0.2,0.6-0.5,1.1-0.9,1.5c-0.4,0.5-1,0.8-1.8,1.1c-0.8,0.2-1.7,0.4-2.8,0.4c-0.9,0-1.7,0-2.3-0.1v5.8
			H319.5z M324.2,429.9c0.6,0,1.1-0.1,1.5-0.2c0.4-0.1,0.7-0.2,1-0.4c0.2-0.2,0.4-0.4,0.6-0.6c0.1-0.3,0.2-0.5,0.3-0.7
			c0-0.2,0.1-0.5,0.1-0.8c0-0.8-0.3-1.5-0.8-1.9s-1.3-0.6-2.3-0.6h-2.3v5.3C322.4,429.9,323,429.9,324.2,429.9z"/>
		<path class="st8" d="M332.4,437.6v-15h9.1l-0.1,2.2h-6.2v3.9h5.9v2.2h-5.9v4.5h6.4l-0.1,2.2H332.4z"/>
		<path class="st8" d="M347.1,437.6v-12.8h-4.4v-2.2h11.5v2.2h-4.4v12.8H347.1z"/>
		<path class="st8" d="M365.8,437.8c-1.8,0-3.4-0.4-4.9-1.3l0.7-2.2c0.6,0.4,1.3,0.6,2.1,0.9s1.5,0.3,2.2,0.3c0.9,0,1.5-0.2,2-0.6
			c0.5-0.4,0.7-0.9,0.7-1.6c0-0.9-0.6-1.6-1.9-2c-0.1,0-0.3-0.1-0.7-0.2c-0.4-0.1-0.8-0.2-1.2-0.3c-0.4-0.1-0.6-0.2-0.8-0.3
			c-2-0.7-3-2-3-4c0-1.4,0.5-2.4,1.5-3.1s2.3-1.1,3.9-1.1c1.8,0,3.4,0.4,4.7,1.1l-0.8,2c-1.3-0.6-2.6-0.9-3.7-0.9
			c-0.8,0-1.5,0.1-1.9,0.4c-0.4,0.3-0.6,0.8-0.7,1.5c0,0.8,0.4,1.4,1.2,1.6c0.2,0.1,0.6,0.2,1.2,0.4s1.1,0.3,1.3,0.4
			c1.4,0.5,2.4,1,2.9,1.7c0.6,0.7,0.9,1.6,0.9,2.8c0,1.4-0.5,2.5-1.5,3.3C368.8,437.4,367.5,437.8,365.8,437.8z"/>
		<path class="st8" d="M379.6,437.8c-2,0-3.5-0.5-4.5-1.5c-1-1-1.5-2.4-1.5-4.1v-9.6h2.8v9.4c0,1.3,0.3,2.2,0.8,2.7s1.3,0.9,2.5,0.9
			c1.1,0,2-0.3,2.5-0.9c0.5-0.6,0.8-1.5,0.8-2.7v-9.4h2.8v9.6c0,1.8-0.5,3.1-1.6,4.1C383.1,437.3,381.6,437.8,379.6,437.8z"/>
		<path class="st8" d="M388.7,437.6v-15.1h5c1.2,0,2.2,0.2,3,0.5c0.8,0.3,1.5,0.8,2,1.5c0.5,0.7,0.7,1.5,0.7,2.6
			c0,0.7-0.1,1.4-0.3,1.9c-0.2,0.6-0.5,1.1-0.9,1.5c-0.4,0.5-1,0.8-1.8,1.1c-0.8,0.2-1.7,0.4-2.8,0.4c-0.9,0-1.7,0-2.3-0.1v5.8
			H388.7z M393.4,429.9c0.6,0,1.1-0.1,1.5-0.2c0.4-0.1,0.7-0.2,1-0.4c0.2-0.2,0.4-0.4,0.6-0.6c0.1-0.3,0.2-0.5,0.3-0.7
			c0-0.2,0.1-0.5,0.1-0.8c0-0.8-0.3-1.5-0.8-1.9s-1.3-0.6-2.3-0.6h-2.3v5.3C391.5,429.9,392.2,429.9,393.4,429.9z"/>
		<path class="st8" d="M401.5,437.6v-15.1h5c1.2,0,2.2,0.2,3,0.5c0.8,0.3,1.5,0.8,2,1.5c0.5,0.7,0.7,1.5,0.7,2.6
			c0,0.7-0.1,1.4-0.3,1.9c-0.2,0.6-0.5,1.1-0.9,1.5c-0.4,0.5-1,0.8-1.8,1.1c-0.8,0.2-1.7,0.4-2.8,0.4c-0.9,0-1.7,0-2.3-0.1v5.8
			H401.5z M406.2,429.9c0.6,0,1.1-0.1,1.5-0.2c0.4-0.1,0.7-0.2,1-0.4c0.2-0.2,0.4-0.4,0.6-0.6c0.1-0.3,0.2-0.5,0.3-0.7
			c0-0.2,0.1-0.5,0.1-0.8c0-0.8-0.3-1.5-0.8-1.9s-1.3-0.6-2.3-0.6h-2.3v5.3C404.3,429.9,405,429.9,406.2,429.9z"/>
		<path class="st8" d="M414.3,437.6v-15h2.8v12.8h6.3l-0.1,2.2H414.3z"/>
		<path class="st8" d="M425.4,437.6v-15h2.8v15H425.4z"/>
		<path class="st8" d="M431.5,437.6v-15h9.1l-0.1,2.2h-6.2v3.9h5.9v2.2h-5.9v4.5h6.4l-0.1,2.2H431.5z"/>
		<path class="st8" d="M447.5,437.8c-1.8,0-3.4-0.4-4.9-1.3l0.7-2.2c0.6,0.4,1.3,0.6,2.1,0.9s1.5,0.3,2.2,0.3c0.9,0,1.5-0.2,2-0.6
			c0.5-0.4,0.7-0.9,0.7-1.6c0-0.9-0.6-1.6-1.9-2c-0.1,0-0.3-0.1-0.7-0.2c-0.4-0.1-0.8-0.2-1.2-0.3c-0.4-0.1-0.6-0.2-0.8-0.3
			c-2-0.7-3-2-3-4c0-1.4,0.5-2.4,1.5-3.1s2.3-1.1,3.9-1.1c1.8,0,3.4,0.4,4.7,1.1l-0.8,2c-1.3-0.6-2.6-0.9-3.7-0.9
			c-0.8,0-1.5,0.1-1.9,0.4c-0.4,0.3-0.6,0.8-0.7,1.5c0,0.8,0.4,1.4,1.2,1.6c0.2,0.1,0.6,0.2,1.2,0.4s1.1,0.3,1.3,0.4
			c1.4,0.5,2.4,1,2.9,1.7c0.6,0.7,0.9,1.6,0.9,2.8c0,1.4-0.5,2.5-1.5,3.3C450.6,437.4,449.2,437.8,447.5,437.8z"/>
	</g>
</g>
<g>
	
		<ellipse transform="matrix(0.1332 -0.9911 0.9911 0.1332 -49.1795 588.7173)" class="st9" cx="312" cy="322.5" rx="9.6" ry="12.3"/>
	<path class="st9" d="M300,346.6c0,2.4-2.2,4.3-5,4.3c-2.7,0-5-1.9-5-4.3c0-2.4,2.2-4.3,5-4.3C297.7,342.3,300,344.2,300,346.6z"/>
	<ellipse class="st9" cx="322.4" cy="343.6" rx="5.1" ry="3.7"/>
	<path class="st9" d="M300,347.4c-15.1,0-28-6.4-33.4-9.6c-1.4-0.8-1.3-2.5,0-3.4c6.4-4.5,18.1-15.4,33.2-15.4
		c15.8,0,35.3,14.3,35.3,14.3l10.3-7.4c2.2-1.6,5.8-1.6,7.9,0.1h0c2.1,1.5,2,4-0.1,5.5l-5.4,3.8l6.1,4.7c1.8,1.4,1.8,3.6,0,4.9
		l-0.6,0.5c-2,1.6-5.4,1.6-7.4,0l-10-7.5C335.7,337.8,316.8,347.4,300,347.4z"/>
	<path class="st9" d="M284.9,326.8c0,0,1.3,4.1,1.3,9.3c0,5.2-2,9.2-2,9.2"/>
	<path class="st9" d="M282.6,334.6c0,1.5-1.3,2.7-2.8,2.7s-2.8-1.2-2.8-2.7c0-1.5,1.3-2.7,2.8-2.7S282.6,333.1,282.6,334.6z"/>
	<path class="st9" d="M280.2,334.5c0,0.5-0.4,0.9-0.9,0.9s-0.9-0.4-0.9-0.9c0-0.5,0.4-0.9,0.9-0.9S280.2,334,280.2,334.5z"/>
	<g>
		<path class="st9" d="M290,326.3c3.7,0.5,6.4,2.9,6.4,5.8c0,2.9-2.8,5.3-6.4,5.8"/>
		<line class="st9" x1="303.5" y1="329" x2="328" y2="331.7"/>
		<line class="st9" x1="303.5" y1="340.4" x2="328.7" y2="336.9"/>
	</g>
</g>
<g>
	<path class="st9" d="M477.7,334.9c0,0-15.3-14.2-2.5-28.8"/>
	<path class="st9" d="M549.2,309.8h-23.1l-6,18.3h-40.5c-4.7,0-8.5,3.8-8.5,8.5v8.9c0,0-7.1,3.6-4.6,12.1h8.2c0,0,2.5-2.5-0.7-4.6
		c0,0,2.1-4.6,6-5l30.9,4.5h19.6c0,0,10.7-2,5.7-19.8l3.9-12.3C549.9,319.2,549.2,309.8,549.2,309.8z"/>
	<path class="st9" d="M526.1,312.5l-6.5,8.4c-0.8,1.4,0,3.2,1.6,3.6l8.3,1.8c1.5,0.3,2.9-0.8,2.9-2.4v-10.5"/>
	<path class="st9" d="M520.8,350.9v6.8h10.7c0,0,0-6.8-5.3-6.8v-3.9"/>
	<line class="st9" x1="545.6" y1="309.8" x2="545.6" y2="312.5"/>
	<path class="st9" d="M537,312.5c0,0.2-0.1,0.3-0.3,0.3c-0.2,0-0.3-0.1-0.3-0.3c0-0.2,0.1-0.3,0.3-0.3
		C536.9,312.2,537,312.3,537,312.5z"/>
</g>
<g>
	<g>
		<path class="st5" d="M677.1,322.4c0,0-7.3,0-15.7,3.2"/>
		<path class="st5" d="M675.5,325.6c0,0-7.6,3.6-10.9,8.2"/>
	</g>
	<path class="st5" d="M671,316.5l1.8-12.6c0,0,6.1,6.2,6.1,14.4"/>
	<g>
		<path class="st5" d="M720.7,340.9c-1.3-18.1-11.8-24.6-29.6-24.6c-2.9-10.6-20.9-7.5-22.4,3.5c-0.6,4.9,3.2,9.2,9.3,10
			c-2.9,3.1-2.9,9.7,2,12.5l-2.9,14c-0.3,1.7,0.9,3.2,2.6,3.2c1.1,0,2.1-0.7,2.5-1.7l5.7-14.7c-0.3,7.6,4.5,13.2,11.7,14.9
			c4.8,1.2,10.7,1.5,15.3-0.7C721.4,354.4,721.2,347,720.7,340.9z"/>
	</g>
	<line class="st5" x1="675.5" y1="318.3" x2="675.5" y2="319.1"/>
	<path class="st5" d="M687.9,343.2c0,0,8.4-3.8,6-12.7"/>
	<g>
		<path class="st5" d="M675.5,322.4c0,0,7.3,0,15.7,3.2"/>
		<path class="st5" d="M677,325.6c0,0,7.6,3.6,10.9,8.2"/>
	</g>
	<path class="st5" d="M681,316.5l2.3-12.6c0,0,7.8,6.2,7.8,14.4"/>
	<path class="st5" d="M710.6,329.1c0,0-16.7,5.6-7.2,24.1l-11.1,3.3c-0.7,0.2-1.2,0.8-1.2,1.6l0,0c0,0.9,0.7,1.6,1.6,1.6h12.1
		c3.1,0,5.6-2.5,5.5-5.6c-0.1-2.2,0.4-4.8,2.4-7"/>
	<path class="st5" d="M720.1,351.5h2.3c3.2,0,5.9-2.6,5.9-5.9v-11.1c0-3,2.4-5.4,5.4-5.4h0c3,0,5.4,2.4,5.4,5.4v11.3"/>
</g>
<g>
	<g>
		<g>
			<path class="st5" d="M876.7,341.2c0,0-2.9,4.8-12.1,7.2c-1.3,0.4-2.3,1.5-2.3,2.9l0,0c0,1.8,1.6,3.2,3.3,3
				c3.9-0.4,10.4-1.9,15.5-6.5"/>
			<path class="st5" d="M865.2,326.1c0,0,0.1-16.9,22.1-21.8c0,0-3.9,15.6-16.8,24.2"/>
			<path class="st5" d="M926.8,336.9c1-18-26.4-19.8-34.7-12.4c-7.7,6.8-11.1-1.1-16.6-2.6c-15.5-4.3-24.3,15.9-0.3,17
				c0,0-2.2,12.2,10.7,12.2h35.8c0.9-1.5,1.7-2.9,2.3-4.3c0.2,0,0.5,0.1,0.7,0.1c2.9,0,5.2-2.3,5.2-5.2
				C929.8,339.5,928.6,337.7,926.8,336.9z"/>
			<path class="st5" d="M911.6,329.1c-11.3,0-14.9,15.4-5.2,21h-9.9c-1.5,0-2.8,1.2-2.8,2.8c0,1.5,1.2,2.8,2.8,2.8h21.7
				c0,0,3.7,0,3.3-5.5"/>
			<path class="st5" d="M884.8,342.3c0,0-2.9,4.8-12.1,7.2c-1.3,0.4-2.3,1.5-2.3,2.9l0,0c0,1.8,1.6,3.2,3.3,3
				c3.9-0.4,10.4-1.9,15.5-6.5"/>
			<path class="st5" d="M872.4,324.1c0,0,3-16.6,25.5-17.7c0,0-6.5,14.7-20.7,21"/>
		</g>
		<line class="st5" x1="856.7" y1="355.6" x2="933.4" y2="355.6"/>
		<line class="st5" x1="885.8" y1="359.3" x2="904.3" y2="359.3"/>
	</g>
</g>
<g>
	<circle class="st1" cx="420.2" cy="494.5" r="20.6"/>
	<path class="st1" d="M399.8,491.6C399.8,491.6,399.8,491.6,399.8,491.6c-0.2,2.6,0.5,4.9,2.2,6.6c4,4,12.2,2.4,18.2-3.6
		c6-6,7.6-14.2,3.6-18.2c-1.6-1.6-4-2.3-6.6-2.2c0,0,0,0,0,0"/>
	<g>
		<g>
			<path class="st1" d="M409.7,506.3l-0.1-2.6c0.7,0,1.5-0.1,2.3-0.3l0.5,2.5C411.5,506.2,410.6,506.3,409.7,506.3z M407.1,506.3
				c-0.9-0.1-1.8-0.3-2.7-0.5l0.8-2.5c0.7,0.2,1.4,0.4,2.2,0.4L407.1,506.3z M414.9,505.3l-0.8-2.4c0.7-0.2,1.5-0.5,2.2-0.9l1.1,2.3
				C416.6,504.7,415.7,505,414.9,505.3z M419.7,503.1l-1.3-2.2c0.7-0.4,1.3-0.8,1.9-1.3l1.5,2.1
				C421.1,502.2,420.4,502.6,419.7,503.1z M423.8,500l-1.7-1.9c0.3-0.3,0.6-0.5,0.8-0.8c0.3-0.3,0.6-0.6,0.8-0.9l1.9,1.7
				c-0.3,0.3-0.6,0.6-0.9,1C424.4,499.4,424.1,499.7,423.8,500z M427.3,496.1l-2.1-1.5c0.5-0.6,0.9-1.3,1.3-1.9l2.2,1.3
				C428.3,494.7,427.8,495.4,427.3,496.1z M430,491.7l-2.3-1.1c0.3-0.7,0.6-1.4,0.9-2.2l2.4,0.8C430.7,490,430.4,490.9,430,491.7z
				 M431.7,486.7l-2.5-0.5c0.2-0.8,0.3-1.5,0.3-2.3l2.6,0.1C432,484.9,431.8,485.8,431.7,486.7z M429.4,481.6
				c-0.1-0.8-0.2-1.5-0.4-2.2l2.5-0.8c0.3,0.8,0.4,1.7,0.5,2.7L429.4,481.6z"/>
		</g>
	</g>
	<path class="st1" d="M406.6,510L406.6,510c6.5,1,14.5-1.8,20.9-8.2c6.3-6.3,9.2-14.3,8.2-20.8v0"/>
	<path class="st1" d="M390.6,524.1l7.7,7.7c2.2,2.2-0.6,11.6,6.4,11.6c3.6,0,3-4.3,5.1-6.4c2.1-2.1,6.4-1.5,6.4-5.1
		c0-7-9.4-4.2-11.6-6.4l-7.7-7.7l-7.7-7.7c-2.2-2.2,0.6-11.6-6.4-11.6c-3.6,0-3,4.3-5.1,6.4c-2.1,2.1-6.4,1.5-6.4,5.1
		c0,7,9.4,4.2,11.6,6.4L390.6,524.1z"/>
</g>
<g>
	<rect x="578.2" y="541.1" class="st1" width="53.6" height="5.6"/>
	<path class="st1" d="M607.8,473.4c0-1.6-1.3-2.8-2.8-2.8c-1.6,0-2.8,1.3-2.8,2.8c0,1.6,1.3,2.8,2.8,2.8
		C606.6,476.3,607.8,475,607.8,473.4z"/>
	<line class="st1" x1="605" y1="476.3" x2="605" y2="479.1"/>
	<path class="st1" d="M600.8,483.3c0-2.3,1.9-4.2,4.2-4.2c2.3,0,4.2,1.9,4.2,4.2v1.4h-8.5V483.3z"/>
	<g>
		<path class="st1" d="M609.2,484.7c10.9,0,19.7,8.8,19.7,19.7v36.6"/>
		<path class="st1" d="M600.8,484.7c-10.9,0-19.7,8.8-19.7,19.7v36.6"/>
		<path class="st1" d="M607.8,484.7c7.3,0,14.1,8.8,14.1,19.7v36.6"/>
		<path class="st1" d="M602.2,484.7c-7.3,0-14.1,8.8-14.1,19.7v36.6"/>
		<path class="st1" d="M606.4,484.7c3.6,0,7,8.8,7,19.7v36.6"/>
		<path class="st1" d="M603.6,484.7c-3.6,0-7,8.8-7,19.7v36.6"/>
	</g>
	<line class="st1" x1="581" y1="504.4" x2="628.9" y2="504.4"/>
	<line class="st1" x1="593.7" y1="512.9" x2="616.3" y2="512.9"/>
	<line class="st1" x1="593.7" y1="528.4" x2="616.3" y2="528.4"/>
	<line class="st1" x1="581" y1="535.5" x2="628.9" y2="535.5"/>
	<line class="st1" x1="605" y1="484.7" x2="605" y2="528.4"/>
	<line class="st1" x1="605" y1="528.4" x2="605" y2="541.1"/>
</g>
<g>
	<polyline class="st10" points="836.4,537.3 780.4,537.3 760.9,525.6 	"/>
	<polyline class="st11" points="823.1,522.8 836.4,530.8 780.4,530.8 760.9,519.1 776.6,519.1 	"/>
	<line class="st1" x1="798.6" y1="519.1" x2="784.4" y2="519.1"/>
	<line class="st11" x1="807.7" y1="519.1" x2="798.6" y2="519.1"/>
	<line class="st1" x1="776.6" y1="519.1" x2="784.4" y2="519.1"/>
	<polyline class="st11" points="777.9,486.5 816.9,486.5 820.8,488.9 	"/>
	<line class="st1" x1="766.2" y1="486.5" x2="777.9" y2="486.5"/>
	<polyline class="st11" points="832,495.6 836.4,498.3 780.4,498.3 760.9,486.5 766.2,486.5 	"/>
	<line class="st1" x1="820.8" y1="488.9" x2="832" y2="495.6"/>
	<polygon class="st10" points="760.9,480 816.9,480 836.4,491.7 780.4,491.7 	"/>
	<line class="st10" x1="836.4" y1="491.7" x2="836.4" y2="537.3"/>
	<line class="st10" x1="760.9" y1="480" x2="760.9" y2="525.6"/>
	<line class="st10" x1="780.4" y1="491.7" x2="780.4" y2="537.3"/>
	<line class="st1" x1="816.9" y1="502.2" x2="816.9" y2="498.3"/>
	<line class="st11" x1="816.9" y1="508.7" x2="816.9" y2="502.2"/>
	<line class="st10" x1="816.9" y1="486.5" x2="816.9" y2="480"/>
	<path class="st11" d="M818.2,512.6c-2.6,0-6.6,2.4-7.8,3.6c-1.2,1.2-4,3.6-4,5.6c0,2,6.5,3.8,9.2,3.8c2.6,0,7.8-1.2,7.8-3.9
		C823.4,518.9,820.2,512.6,818.2,512.6z"/>
	<path class="st11" d="M789.5,510c-2.9,5.3,4.3,10,1.3,15.6"/>
	<path class="st11" d="M796,513.9c-3.9,3.9,3.4,11.1-5.2,11.7"/>
	<path class="st11" d="M784.9,516c-0.5,3.1-0.5,9.6,5.9,9.6"/>
	<ellipse class="st12" cx="824.7" cy="526.9" rx="2" ry="1.3"/>
	<ellipse class="st12" cx="807.1" cy="526.9" rx="2" ry="1.3"/>
	<ellipse class="st12" cx="798" cy="526.9" rx="2" ry="1.3"/>
	<circle class="st12" cx="802.6" cy="523" r="1.3"/>
	<circle class="st12" cx="784.3" cy="526.9" r="1.3"/>
	<ellipse class="st12" cx="775.2" cy="523" rx="2" ry="1.3"/>
</g>
</svg>
