<?xml version="1.0" encoding="utf-8"?>
<!-- Generator: Adobe Illustrator 22.0.1, SVG Export Plug-In . SVG Version: 6.00 Build 0)  -->
<svg version="1.1" id="Ebene_1" xmlns="http://www.w3.org/2000/svg" xmlns:xlink="http://www.w3.org/1999/xlink" x="0px" y="0px"
	 viewBox="0 0 219 63.21" style="enable-background:new 0 0 219 63.21;" xml:space="preserve">
<style type="text/css">
	.st0{fill:#EB0000;}
	.st1{fill:#1D1D1B;}
</style>
<g>
	<path class="st0" d="M145.443,15.636c0.108-0.164,2.967-4.295,5.519,0.118c2.552,4.413-0.821,6.317-1.094,7.139
		c-0.274,0.821-3.023,7.161-2.606,9.493c0.416,2.334,1.232,3.816,5.919,3.816c4.687,0,6.368-1.756,8.175-1.209
		c1.806,0.548,2.825,2.004,1.094,4.248c-1.73,2.245-4.715,2.79-6.74,2.955c-2.027,0.164-8.996,0.309-11.514-1.86
		c-2.503-2.154-6.076-5.46-1.951-17.048C144.891,15.855,145.443,15.636,145.443,15.636"/>
	<path class="st0" d="M112.423,31.716c-0.648-0.056-1.499-0.281-2.061-1.012c-1.016-1.321-2.061-3.824,1.433-4.649
		c0.465-0.11,0.978-0.24,1.531-0.38c0.279-0.88,0.771-2.625,1.1-3.313c-1.44,0.286-2.643,0.518-3.131,0.622
		c-2.943,0.63-3.713-1.595-3.713-1.595s-1.541-2.723,3.218-4.155c4.761-1.432,14.444-4.459,20.416-3.027
		c5.971,1.431,3.921,5.895,2.502,6.536c-1.02,0.461-2.699,0.055-4.429-0.496c-1.732-0.55-5.72-0.18-7.373,0.426
		c-0.159,0.06-0.376,0.125-0.638,0.198c-0.273,0.598-0.786,2.325-1.16,3.196c2.044-0.396,4.088-0.668,5.846-0.625
		c4.429,0.111,6.491,0.686,7.811,1.678c1.322,0.991,2.283,2.612,0.718,5.035c-1.568,2.423-3.36-0.728-7.074-0.673
		c-1.801,0.027-6.576,0.428-9.158,1.333l-0.355,0.165c-0.928,3.906,1.081,4.325,2.252,4.816c1.681,0.705,4.651,0.937,8.97,0.662
		c4.32-0.276,3.302,1.291,3.028,2.337c-0.277,1.047-0.937,1.982-1.708,2.423c-0.77,0.439-2.391,1.677-10.4,0.715
		C113.38,41.131,112.284,36.382,112.423,31.716"/>
	<path class="st1" d="M49.342,52.567h3.527c0.385,0,0.771,0.044,1.156,0.13c0.385,0.087,0.73,0.232,1.034,0.434
		c0.303,0.202,0.549,0.468,0.737,0.795c0.188,0.328,0.282,0.737,0.282,1.229c0,0.569-0.164,1.046-0.491,1.431
		c-0.328,0.386-0.762,0.651-1.301,0.795v0.029c0.327,0.038,0.631,0.123,0.911,0.253c0.279,0.13,0.52,0.301,0.723,0.513
		c0.202,0.212,0.359,0.463,0.47,0.752c0.11,0.289,0.166,0.612,0.166,0.968c0,0.491-0.101,0.921-0.304,1.287
		c-0.202,0.367-0.477,0.668-0.824,0.904c-0.347,0.236-0.754,0.414-1.222,0.534c-0.467,0.121-0.966,0.181-1.496,0.181h-3.368V52.567z
		 M50.773,56.89h1.865c0.27,0,0.528-0.031,0.773-0.094c0.246-0.062,0.46-0.159,0.643-0.289c0.183-0.13,0.328-0.294,0.434-0.491
		c0.106-0.198,0.159-0.437,0.159-0.716c0-0.549-0.202-0.942-0.607-1.178c-0.405-0.236-0.95-0.354-1.634-0.354h-1.633V56.89z
		 M50.773,61.588h1.792c0.299,0,0.6-0.027,0.904-0.079c0.304-0.053,0.578-0.147,0.824-0.282c0.246-0.134,0.443-0.316,0.592-0.542
		c0.15-0.226,0.224-0.514,0.224-0.86c0-0.607-0.208-1.045-0.622-1.315c-0.415-0.27-1.012-0.405-1.793-0.405h-1.923V61.588z"/>
	<path class="st1" d="M70.785,62.803h-1.431V52.567h3.282c0.491,0,0.959,0.051,1.402,0.152c0.443,0.101,0.831,0.263,1.164,0.484
		c0.332,0.222,0.595,0.514,0.788,0.875c0.193,0.361,0.289,0.802,0.289,1.323c0,0.752-0.231,1.359-0.694,1.821
		c-0.463,0.463-1.06,0.757-1.793,0.882l2.862,4.698H74.92l-2.602-4.554h-1.532V62.803z M70.785,57.049h1.648
		c0.337,0,0.651-0.029,0.94-0.087c0.289-0.058,0.542-0.152,0.759-0.282c0.217-0.13,0.388-0.298,0.513-0.506
		c0.125-0.207,0.188-0.465,0.188-0.773c0-0.308-0.063-0.566-0.188-0.773c-0.125-0.208-0.292-0.373-0.499-0.499
		c-0.208-0.126-0.451-0.214-0.73-0.267c-0.28-0.053-0.573-0.08-0.882-0.08h-1.749V57.049z"/>
	<path class="st1" d="M93.427,63.063c-0.675,0-1.263-0.114-1.763-0.34c-0.501-0.226-0.916-0.528-1.243-0.903
		c-0.328-0.376-0.571-0.807-0.73-1.294c-0.159-0.486-0.239-0.99-0.239-1.511v-6.448h1.431v6.361c0,0.347,0.044,0.691,0.13,1.033
		c0.087,0.343,0.229,0.648,0.426,0.918c0.197,0.27,0.457,0.487,0.781,0.651c0.323,0.164,0.725,0.246,1.207,0.246
		c0.472,0,0.872-0.082,1.2-0.246c0.328-0.164,0.59-0.381,0.788-0.651c0.197-0.27,0.34-0.575,0.426-0.918
		c0.087-0.342,0.13-0.686,0.13-1.033v-6.361h1.431v6.448c0,0.521-0.08,1.024-0.239,1.511c-0.159,0.487-0.403,0.918-0.73,1.294
		c-0.328,0.376-0.742,0.677-1.243,0.903C94.69,62.949,94.102,63.063,93.427,63.063z"/>
	<path class="st1" d="M110.201,52.567h3.513c0.655,0,1.31,0.097,1.966,0.29c0.655,0.192,1.248,0.496,1.778,0.91
		c0.53,0.415,0.959,0.944,1.287,1.59c0.327,0.646,0.491,1.422,0.491,2.328c0,0.877-0.164,1.635-0.491,2.276
		c-0.328,0.642-0.757,1.171-1.287,1.59c-0.53,0.419-1.123,0.733-1.778,0.94c-0.655,0.208-1.311,0.311-1.966,0.311h-3.513V52.567z
		 M111.632,61.545h1.793c0.617,0,1.188-0.087,1.713-0.26c0.525-0.173,0.978-0.424,1.359-0.752c0.381-0.327,0.677-0.732,0.889-1.214
		c0.211-0.482,0.318-1.026,0.318-1.633c0-0.636-0.107-1.195-0.318-1.677c-0.212-0.482-0.509-0.884-0.889-1.207
		c-0.381-0.323-0.834-0.569-1.359-0.738c-0.526-0.168-1.097-0.252-1.713-0.252h-1.793V61.545z"/>
	<path class="st1" d="M132.304,61.53h5.349v1.272h-6.78V52.567h6.563v1.258h-5.132v3.065h4.828v1.229h-4.828V61.53z"/>
	<path class="st1" d="M151.882,62.803h-1.431V52.567h3.282c0.491,0,0.959,0.051,1.403,0.152c0.443,0.101,0.83,0.263,1.163,0.484
		c0.332,0.222,0.595,0.514,0.788,0.875c0.193,0.361,0.289,0.802,0.289,1.323c0,0.752-0.232,1.359-0.694,1.821
		c-0.462,0.463-1.06,0.757-1.793,0.882l2.863,4.698h-1.734l-2.603-4.554h-1.532V62.803z M151.882,57.049h1.648
		c0.337,0,0.651-0.029,0.94-0.087c0.289-0.058,0.542-0.152,0.759-0.282c0.217-0.13,0.388-0.298,0.513-0.506
		c0.125-0.207,0.188-0.465,0.188-0.773c0-0.308-0.063-0.566-0.188-0.773c-0.126-0.208-0.292-0.373-0.499-0.499
		c-0.207-0.126-0.45-0.214-0.73-0.267c-0.279-0.053-0.573-0.08-0.882-0.08h-1.749V57.049z"/>
	<path class="st1" d="M171.98,61.53h5.349v1.272h-6.78V52.567h6.563v1.258h-5.132v3.065h4.828v1.229h-4.828V61.53z"/>
	<path class="st1" d="M191.558,62.803h-1.431V52.567h3.282c0.492,0,0.959,0.051,1.403,0.152c0.443,0.101,0.831,0.263,1.164,0.484
		c0.332,0.222,0.595,0.514,0.788,0.875c0.193,0.361,0.289,0.802,0.289,1.323c0,0.752-0.231,1.359-0.694,1.821
		c-0.463,0.463-1.06,0.757-1.793,0.882l2.862,4.698h-1.734l-2.602-4.554h-1.532V62.803z M191.558,57.049h1.648
		c0.337,0,0.651-0.029,0.94-0.087c0.289-0.058,0.542-0.152,0.759-0.282c0.217-0.13,0.388-0.298,0.513-0.506
		c0.125-0.207,0.188-0.465,0.188-0.773c0-0.308-0.063-0.566-0.188-0.773c-0.125-0.208-0.291-0.373-0.499-0.499
		c-0.207-0.126-0.45-0.214-0.73-0.267c-0.28-0.053-0.573-0.08-0.882-0.08h-1.749V57.049z"/>
	<path class="st0" d="M74.579,19.841c-0.112-1.536-0.255-3.148-0.427-3.516c-1.11-2.392-3.417-1.748-4.399-0.092
		c-0.37,0.626-0.39,2.327-0.555,3.714c-0.377,3.16-0.947,7.31-1.434,9.539c-0.031,0.143-0.064,0.293-0.096,0.447
		c-0.907,3.736-2.263,7.528-5.505,1.663c-1.24-2.243-1.579-4.643-3.357-12.399c-1.939-8.464-6.149-3.753-6.415-2.724
		c0,0-1.074,3.344-2.146,8.14c-1.352,6.039-3.659,14.411-3.659,14.411s-0.853,2.22,2.07,3.937c2.511,1.474,4.089-1.513,4.089-1.513
		s0.302-0.506,0.914-3.152c0.612-2.648,1.601-7.426,1.601-7.426s1.981,7.082,6.973,10.334c4.512,2.941,8.263-0.926,8.832-1.815
		c1.352-2.116,2.162-4.352,2.565-6.94c0.003-0.023,0.003-0.049,0.004-0.072C73.926,30.567,74.908,24.364,74.579,19.841z"/>
	<path class="st0" d="M26.937,18.209"/>
	<path class="st0" d="M217.17,18.958c-2.141-1.266-16.259,0.68-22.279,1.083c-1.021,0.07-2.215,0.158-3.507,0.262
		c-1.316-3.607-2.492-5.856-3.466-7.256c-0.012-0.019-0.023-0.039-0.035-0.057c-0.91-1.419-1.759-2.066-2.547-2.205
		c-0.05-0.009-0.094-0.015-0.133-0.018c-2.212-0.229-3.933,3.535-5.155,5.536c-0.598,0.978-2.081,3.187-3.815,5.739
		c-1.341,0.237-2.479,0.487-3.305,0.747c-3.464,1.092-2.101,4.919-1.431,6.181c-1.564,2.287-2.867,4.2-3.404,5.032
		c-1.633,2.525-2.601,5.273,0.944,7.696c3.547,2.428,4.651-2.989,6.697-6.484c0.775-1.324,2.197-3.984,3.683-6.786
		c1.92-0.37,5.172-0.777,8.694-1.161c1.49,6.08,2.591,15.454,4.797,17.658c3.177,3.172,4.025-0.242,4.025-0.242
		s0.593-1.301-0.744-6.672c-0.95-4.447-1.874-8.173-2.757-11.29c4.485-0.438,8.545-0.787,9.984-0.922
		c3.445-0.323,8.013-0.436,12.235-0.436C219.878,25.365,219.774,20.495,217.17,18.958z M184.621,21.384
		c-0.731,0.084-1.458,0.168-2.121,0.242c0.041-0.074,0.08-0.147,0.12-0.22c1.138-2.161,1.942-3.543,2.082-3.642
		c0.076-0.053,0.152-0.149,0.267-0.156c0.053,0,0.107,0.015,0.161,0.044c0.002,0.001,0.004,0.003,0.007,0.004
		c0.036,0.019,0.073,0.053,0.11,0.084c0.082,0.075,0.177,0.187,0.289,0.348c0.388,0.597,0.797,1.705,1.199,3.066
		C186.03,21.229,185.326,21.307,184.621,21.384z"/>
	<g>
		<path class="st0" d="M23.582,21.29c1.367-0.149,2.747-0.293,4.117-0.427c-0.099-0.563-0.2-1.032-0.301-1.416
			c-0.206-0.67-0.394-1.154-0.575-1.447c-0.249-0.355-0.45-0.335-0.541-0.297c-0.017,0.01-0.035,0.017-0.052,0.03
			C26.091,17.837,25.058,19.183,23.582,21.29z"/>
		<path class="st0" d="M36.031,20.003c1.824-0.122,4.078-0.351,6.097-0.545V0L0,0.001V63.21h42.124l0.004-37.31
			c-2.037,0.18-5.405,0.482-8.791,0.809c0.392,3.157,0.666,6.234,0.914,8.725c0.647,6.491,0.636,10.63,0.08,11.608
			c-0.067,0.117-1.375,3.417-4.065,0.242c-1.672-1.975-1.477-11.613-1.813-17.978c-0.008-0.126-0.015-0.258-0.022-0.394
			c-0.035-0.601-0.074-1.171-0.122-1.696c-3.584,0.384-7.085,0.812-9.062,1.183c-1.922,2.806-3.755,5.467-4.735,6.792
			c-2.588,3.499-4.531,8.92-7.705,6.492c-3.174-2.426-1.779-5.178,0.243-7.706c0.667-0.833,2.266-2.747,4.184-5.037
			c-0.475-1.264-1.249-5.094,2.388-6.187c0.866-0.26,2.045-0.51,3.423-0.748c2.131-2.553,3.956-4.763,4.707-5.742
			c2.104-2.752,5.662-8.839,8.352-3.317c0.952,1.954,1.669,4.53,2.226,7.33C33.699,20.166,34.957,20.074,36.031,20.003z"/>
	</g>
	<path class="st0" d="M102.667,29.633c-2.958-3.122-7.978-2.969-10.557-3.205c-3.121-0.286-7.076,6.56,0.802,6.081
		c4.49-0.274,5.627,0.817,5.664,1.899c-0.066,1.326-0.86,1.977-1.874,2.266l0.003,0.004c0,0-0.024,0.005-0.06,0.012
		c-0.347,0.094-0.983,0.246-1.36,0.268c-1.088,0.14-2.445,0.191-4.122,0.011c-2.638-0.328-6.648-1.694-6.648-6.986
		c0-5.166,5.844-8.048,9.91-9.429c1.285-0.403,2.73-0.791,4.358-1.172c6.931-1.622,1.726-7.168-3.059-5.217
		c-7.219,2.195-11.378,4.9-13.753,7.595l0,0c-0.002,0.002-0.003,0.004-0.004,0.006c-1.209,1.373-1.955,2.742-2.404,4.039
		c-0.544,1.353-0.794,2.622-0.845,3.788l-0.011-0.003c0,0-0.007,0.175,0.002,0.474c0.001,1.101,0.177,2.103,0.444,2.991
		c0.953,3.631,3.917,8.853,13.012,9.204c0.715,0.044,1.456,0.048,2.228,0.004C104.209,41.708,105.626,32.754,102.667,29.633z"/>
</g>
</svg>
